<svg width="14" height="14" viewBox="0 0 30 24" fill="none" xmlns="http://www.w3.org/2000/svg">
<path d="M4.33325 15.5H6.99992C7.70716 15.5 8.38544 15.7459 8.88554 16.1835C9.38563 16.621 9.66659 17.2145 9.66659 17.8334V20.1667H10.9999V17.8334C10.9999 17.2145 11.2809 16.621 11.781 16.1835C12.2811 15.7459 12.9593 15.5 13.6666 15.5H16.3333C17.0405 15.5 17.7188 15.7459 18.2189 16.1835C18.719 16.621 18.9999 17.2145 18.9999 17.8334V20.1667H20.3333V17.8334C20.3333 17.2145 20.6142 16.621 21.1143 16.1835C21.6144 15.7459 22.2927 15.5 22.9999 15.5H25.6666C26.3738 15.5 27.0521 15.7459 27.5522 16.1835C28.0523 16.621 28.3333 17.2145 28.3333 17.8334V20.1667H29.6666V23.6667H0.333252V20.1667H1.66659V17.8334C1.66659 17.2145 1.94754 16.621 2.44763 16.1835C2.94773 15.7459 3.62601 15.5 4.33325 15.5ZM13.6666 6.16671L18.9999 9.66671L13.6666 13.1667V6.16671ZM4.33325 0.333374H25.6666C26.3738 0.333374 27.0521 0.579207 27.5522 1.01679C28.0523 1.45438 28.3333 2.04787 28.3333 2.66671V13.7967C27.5258 13.3797 26.6042 13.1619 25.6666 13.1667V2.66671H4.33325V13.1667C3.35992 13.1667 2.45325 13.3884 1.66659 13.7967V2.66671C1.66659 2.04787 1.94754 1.45438 2.44763 1.01679C2.94773 0.579207 3.62601 0.333374 4.33325 0.333374Z" fill="black"/>
</svg>
