<svg width="39" height="37" viewBox="0 0 39 37" fill="none" xmlns="http://www.w3.org/2000/svg">
<ellipse cx="19" cy="18.5" rx="19" ry="18.5" fill="#008000"/>
<path d="M39 18.4815C39 8.27875 30.264 0 19.5 0C8.736 0 0 8.27875 0 18.4815C0 24.1009 2.691 29.1652 6.903 32.5646C6.942 32.6016 6.981 32.6016 6.981 32.6386C7.332 32.8976 7.683 33.1566 8.073 33.4156C8.268 33.5266 8.424 33.6723 8.619 33.8203C11.8415 35.8932 15.6456 37.0008 19.539 37C23.4324 37.0008 27.2365 35.8932 30.459 33.8203C30.654 33.7093 30.81 33.5636 31.005 33.4503C31.356 33.1936 31.746 32.9346 32.097 32.6756C32.136 32.6386 32.175 32.6386 32.175 32.6016C36.309 29.1629 39 24.1009 39 18.4815ZM19.5 34.6713C15.834 34.6713 12.48 33.5613 9.711 31.7136C9.75 31.4176 9.828 31.1239 9.906 30.8279C10.1384 30.0257 10.4792 29.2555 10.92 28.5363C11.349 27.8333 11.856 27.2043 12.48 26.6493C13.065 26.0943 13.767 25.5786 14.469 25.1716C15.21 24.7646 15.99 24.4686 16.848 24.2466C17.7127 24.0254 18.6045 23.9142 19.5 23.9159C22.1585 23.898 24.7192 24.8655 26.637 26.6123C27.534 27.4633 28.236 28.4623 28.743 29.6069C29.016 30.2729 29.211 30.9759 29.328 31.7136C26.4497 33.6334 23.0184 34.666 19.5 34.6713ZM13.533 17.5588C13.1894 16.8124 13.0166 16.0053 13.026 15.1908C13.026 14.3791 13.182 13.5651 13.533 12.8251C13.884 12.0851 14.352 11.4214 14.937 10.8664C15.522 10.3114 16.224 9.86975 17.004 9.53675C17.784 9.20375 18.642 9.05575 19.5 9.05575C20.397 9.05575 21.216 9.20375 21.996 9.53675C22.776 9.86975 23.478 10.3137 24.063 10.8664C24.648 11.4214 25.116 12.0874 25.467 12.8251C25.818 13.5651 25.974 14.3791 25.974 15.1908C25.974 16.0418 25.818 16.8188 25.467 17.5565C25.1283 18.2856 24.6525 18.95 24.063 19.5175C23.4647 20.0759 22.7643 20.5265 21.996 20.8472C20.3844 21.4755 18.5766 21.4755 16.965 20.8472C16.1967 20.5265 15.4963 20.0759 14.898 19.5175C14.3077 18.9583 13.8433 18.2935 13.533 17.5588ZM31.629 29.8289C31.629 29.7549 31.59 29.7179 31.59 29.6439C31.2064 28.4863 30.6411 27.3902 29.913 26.3926C29.1842 25.3875 28.2886 24.5011 27.261 23.7679C26.4762 23.2077 25.6255 22.7359 24.726 22.3619C25.1352 22.1058 25.5144 21.8088 25.857 21.4762C26.4384 20.9316 26.9491 20.3229 27.378 19.6632C28.2418 18.3169 28.6878 16.7668 28.665 15.1908C28.6771 14.0242 28.4382 12.8675 27.963 11.7914C27.4938 10.7546 26.8185 9.81322 25.974 9.01875C25.1307 8.23257 24.1383 7.60486 23.049 7.16875C21.9129 6.71872 20.6921 6.49291 19.461 6.50506C18.2297 6.49364 17.0089 6.72024 15.873 7.17106C14.7743 7.60625 13.7795 8.24726 12.948 9.05575C12.1194 9.85492 11.4577 10.7957 10.998 11.8284C10.5228 12.9045 10.2839 14.0612 10.296 15.2278C10.296 16.0418 10.413 16.8188 10.647 17.5565C10.881 18.3335 11.193 19.0365 11.622 19.7002C12.012 20.3662 12.558 20.9582 13.143 21.5132C13.494 21.8462 13.884 22.1399 14.313 22.3989C13.4107 22.7829 12.5598 23.2673 11.778 23.8419C10.764 24.5819 9.867 25.4676 9.126 26.4296C8.39051 27.4231 7.82457 28.5203 7.449 29.6809C7.41 29.7549 7.41 29.8289 7.41 29.8659C4.329 26.9083 2.418 22.9169 2.418 18.4815C2.418 9.57375 10.101 2.29169 19.5 2.29169C28.899 2.29169 36.582 9.57375 36.582 18.4815C36.5769 22.7364 34.7961 26.8163 31.629 29.8289Z" fill="black"/>
</svg>
